<svg xmlns="http://www.w3.org/2000/svg" width="24" height="24" fill="none" viewBox="0 0 24 24">
    <path fill="#FFC806" fill-rule="evenodd" d="M23 12c0 6.075-4.925 11-11 11S1 18.075 1 12 5.925 1 12 1s11 4.925 11 11zm1 0c0 6.627-5.373 12-12 12S0 18.627 0 12 5.373 0 12 0s12 5.373 12 12zM9.259 15.433c-.075.338-.113.584-.113.74 0 .445.138.776.413.995.281.212.597.318.947.318.618 0 1.2-.262 1.743-.787.332-.319.81-.938 1.435-1.857l-.422-.271c-.219.362-.472.709-.76 1.04-.287.332-.528.497-.721.497-.075 0-.144-.019-.207-.056-.062-.044-.093-.134-.093-.272 0-.137.056-.438.168-.9.044-.181.129-.506.254-.975l1.49-5.466-.825.16c-.287.056-.778.125-1.472.206-.687.075-1.212.125-1.575.15v.506c.431.019.728.06.89.122.163.063.245.222.245.478 0 .044-.007.09-.02.14-.005.05-.015.1-.027.15l-1.153 4.313c-.088.32-.154.575-.197.77zm4.51-10.903c-.25-.25-.554-.375-.91-.375-.357 0-.663.125-.919.375-.25.25-.375.553-.375.91 0 .356.125.662.375.918.256.25.563.375.919.375.356 0 .66-.125.91-.375.25-.256.374-.562.374-.919 0-.356-.125-.659-.375-.909z" clip-rule="evenodd"/>
</svg>
